<?xml version="1.0" encoding="utf-8"?>
<!-- Generator: Adobe Illustrator 16.0.0, SVG Export Plug-In . SVG Version: 6.00 Build 0)  -->
<!DOCTYPE svg PUBLIC "-//W3C//DTD SVG 1.1//EN" "http://www.w3.org/Graphics/SVG/1.1/DTD/svg11.dtd">
<svg version="1.1" id="Livello_1" xmlns="http://www.w3.org/2000/svg" xmlns:xlink="http://www.w3.org/1999/xlink" x="0px" y="0px"
	 width="841.89px" height="595.28px" viewBox="0 0 841.89 595.28" enable-background="new 0 0 841.89 595.28" xml:space="preserve">
<rect x="129.445" y="203.51" fill="#B1875F" stroke="#B1875F" stroke-width="20" stroke-miterlimit="10" width="567" height="185.37"/>
<g opacity="0.6">
	<path fill-rule="evenodd" clip-rule="evenodd" d="M151.262,340.171c0.451-1.7,0.753-3.458,1.378-5.093
		c1.629-4.261,4.528-7.479,8.587-9.554c1.009-0.516,1.253-1.087,1.252-2.131c-0.027-25.864-0.021-51.727-0.021-77.59
		c0-0.598,0-1.195,0-1.97c0.809,0,1.493,0,2.176,0.001c13.398,0.004,26.796-0.006,40.195,0.037c1.08,0.003,1.621-0.279,2.088-1.306
		c2.083-4.588,7.053-7.406,11.791-6.817c5.432,0.675,9.641,4.337,10.639,9.459c1.095,5.608-1.594,10.823-6.638,13.176
		c-1.098,0.511-1.388,1.125-1.369,2.213c0.048,2.836,0.016,5.672,0.016,8.622c1.164,0,2.166,0,3.228,0
		c0.117,3.6,0.268,7.086,0.32,10.573c0.013,0.946,0.301,1.51,1.1,2.032c3.595,2.343,7.143,4.757,10.704,7.146
		c0.268,0.181,0.52,0.383,0.906,0.669c-2.721,3.858-5.416,7.682-8.195,11.623c-2.069-1.464-4.067-2.881-6.127-4.339
		c1.276-1.818,2.5-3.559,3.789-5.393c-3.023-2.027-5.953-4.012-8.917-5.945c-0.253-0.166-0.822-0.127-1.093,0.05
		c-2.926,1.909-5.823,3.864-8.856,5.894c1.255,1.796,2.468,3.531,3.765,5.392c-2.01,1.433-3.97,2.829-6.086,4.336
		c-2.723-3.854-5.428-7.683-8.224-11.638c0.452-0.329,0.84-0.632,1.25-0.905c3.453-2.305,6.896-4.623,10.375-6.889
		c0.786-0.512,1.093-1.081,1.104-2.032c0.042-3.446,0.187-6.891,0.296-10.47c1.042,0,2.044,0,3.228,0
		c0-1.09-0.003-2.049,0.001-3.008c0.007-1.12-0.071-2.25,0.051-3.357c0.271-2.464-0.102-4.24-2.82-5.422
		c-2.45-1.063-3.93-3.485-4.854-6.09c-6.465,0-12.89,0-19.402,0c0,23.938,0,47.81,0,71.787c6.47,0,12.892,0,19.457,0
		c0-4.623,0-9.265,0-14.023c7.531,0,14.921,0,22.453,0c0,4.617,0,9.26,0,14.014c6.178,0,12.213,0,18.419,0c0-4.716,0-9.354,0-14.06
		c7.527,0,14.884,0,22.411,0c0,4.667,0,9.308,0,14.178c2.249,0,4.335-0.008,6.421,0.001c6.328,0.024,11.332,2.707,15.077,7.717
		c1.804,2.413,2.99,5.146,3.292,8.201c0.022,0.216,0.163,0.421,0.248,0.63c0,1.401,0,2.802,0,4.202
		c-0.114,0.53-0.227,1.063-0.341,1.594c-1.852,8.75-9.501,14.94-18.461,14.941c-34.993,0-69.986,0.002-104.978-0.011
		c-1.251-0.001-2.518-0.065-3.751-0.263c-7.089-1.137-11.922-5.154-14.624-11.739c-0.591-1.438-0.849-3.012-1.26-4.522
		C151.262,342.785,151.262,341.479,151.262,340.171z M223.02,353.117c0-0.007,0-0.013,0-0.02c5.787,0,11.573,0.002,17.358,0
		c11.852-0.003,23.705-0.055,35.556,0.009c7.232,0.038,13.243-7.009,10.58-14.861c-1.37-4.041-5.185-7.462-11.025-7.455
		c-13.252,0.016-26.505-0.021-39.755-0.025c-15.539-0.007-31.077-0.02-46.615,0.004c-6.809,0.01-13.625-0.079-20.424,0.209
		c-6.443,0.272-11.241,7.181-9.638,13.42c1.409,5.483,5.596,8.705,11.47,8.712C188.024,353.13,205.521,353.117,223.02,353.117z
		 M170.086,251.45c0,23.973,0,47.834,0,71.774c3.079,0,6.079,0,9.109,0c0-23.977,0-47.842,0-71.774
		C176.159,251.45,173.193,251.45,170.086,251.45z M217.767,243.235c-2.513-0.03-4.567,1.88-4.589,4.266
		c-0.024,2.569,1.911,4.518,4.493,4.523c2.467,0.006,4.443-1.959,4.452-4.424C222.13,245.223,220.177,243.266,217.767,243.235z
		 M262.115,316.735c-2.501,0-4.893,0-7.349,0c0,2.204,0,4.32,0,6.494c2.497,0,4.893,0,7.349,0
		C262.115,321.042,262.115,318.958,262.115,316.735z M214.085,316.721c0,2.218,0,4.364,0,6.504c2.452,0,4.795,0,7.162,0
		c0-2.223,0-4.335,0-6.504C218.818,316.721,216.474,316.721,214.085,316.721z"/>
	<path fill-rule="evenodd" clip-rule="evenodd" d="M171.502,338.256c4.369,0,8.638,0,13.004,0c0,2.487,0,4.919,0,7.427
		c-4.338,0-8.606,0-13.004,0C171.502,343.254,171.502,340.82,171.502,338.256z"/>
	<path fill-rule="evenodd" clip-rule="evenodd" d="M201.451,345.66c0-2.505,0-4.905,0-7.381c4.371,0,8.672,0,13.05,0
		c0,2.479,0,4.879,0,7.381C210.187,345.66,205.884,345.66,201.451,345.66z"/>
	<path fill-rule="evenodd" clip-rule="evenodd" d="M231.434,345.657c0-2.503,0-4.903,0-7.376c4.367,0,8.665,0,13.046,0
		c0,2.477,0,4.874,0,7.376C240.152,345.657,235.854,345.657,231.434,345.657z"/>
	<path fill-rule="evenodd" clip-rule="evenodd" d="M274.46,345.683c-4.408,0-8.677,0-13.034,0c0-2.475,0-4.874,0-7.378
		c4.316,0,8.622,0,13.034,0C274.46,340.726,274.46,343.159,274.46,345.683z"/>
</g>
<g>
	<path fill="#F1F2F2" d="M348.26,261.28v15.089h9.035c0.627,0,1.077,0.121,1.349,0.361c0.271,0.241,0.408,0.56,0.408,0.957
		c0,0.376-0.136,0.69-0.408,0.941c-0.272,0.251-0.721,0.376-1.349,0.376H342.08c-0.627,0-1.077-0.125-1.349-0.376
		c-0.272-0.251-0.408-0.564-0.408-0.941c0-0.397,0.136-0.716,0.408-0.957c0.271-0.24,0.721-0.361,1.349-0.361h3.545v-31.434h-3.545
		c-0.627,0-1.077-0.12-1.349-0.361c-0.272-0.24-0.408-0.56-0.408-0.957c0-0.397,0.157-0.732,0.471-1.004
		c0.23-0.208,0.659-0.313,1.286-0.313h29.019v9.066c0,0.627-0.125,1.077-0.376,1.349c-0.251,0.272-0.565,0.408-0.941,0.408
		c-0.397,0-0.721-0.136-0.972-0.408c-0.251-0.271-0.376-0.722-0.376-1.349v-6.431H348.26v13.709h9.443v-2.98
		c0-0.627,0.125-1.077,0.376-1.349c0.251-0.271,0.575-0.408,0.972-0.408c0.376,0,0.69,0.136,0.941,0.408
		c0.251,0.272,0.376,0.722,0.376,1.349v8.596c0,0.627-0.125,1.078-0.376,1.349c-0.251,0.272-0.565,0.408-0.941,0.408
		c-0.397,0-0.721-0.136-0.972-0.408c-0.251-0.271-0.376-0.722-0.376-1.349v-2.98H348.26z"/>
	<path fill="#F1F2F2" d="M400.744,279.004v-3.796c-3.827,3.221-7.916,4.831-12.266,4.831c-3.158,0-5.626-0.8-7.403-2.4
		c-1.778-1.6-2.667-3.561-2.667-5.882c0-2.551,1.171-4.779,3.513-6.682c2.342-1.903,5.762-2.855,10.259-2.855
		c1.212,0,2.53,0.079,3.953,0.235c1.422,0.157,2.959,0.403,4.611,0.737v-4.267c0-1.443-0.669-2.698-2.008-3.764
		c-1.338-1.067-3.346-1.6-6.023-1.6c-2.05,0-4.925,0.596-8.627,1.788c-0.67,0.209-1.098,0.313-1.287,0.313
		c-0.334,0-0.622-0.125-0.862-0.376c-0.241-0.251-0.361-0.565-0.361-0.941c0-0.355,0.104-0.638,0.313-0.847
		c0.293-0.313,1.475-0.742,3.545-1.286c3.263-0.878,5.73-1.317,7.404-1.317c3.325,0,5.918,0.821,7.78,2.462
		c1.861,1.642,2.792,3.498,2.792,5.568v17.442h3.514c0.648,0,1.108,0.121,1.38,0.361c0.271,0.241,0.408,0.56,0.408,0.957
		c0,0.376-0.136,0.69-0.408,0.941c-0.272,0.251-0.732,0.376-1.38,0.376H400.744z M400.744,265.891
		c-1.234-0.355-2.541-0.617-3.921-0.784c-1.38-0.167-2.834-0.251-4.36-0.251c-3.827,0-6.818,0.827-8.972,2.479
		c-1.631,1.234-2.447,2.708-2.447,4.423c0,1.589,0.622,2.928,1.866,4.015c1.244,1.088,3.059,1.631,5.443,1.631
		c2.279,0,4.397-0.455,6.353-1.364c1.955-0.91,3.968-2.358,6.039-4.345V265.891z"/>
	<path fill="#F1F2F2" d="M421.794,239.634v17.474c3.178-4.141,7.016-6.211,11.513-6.211c3.848,0,7.142,1.396,9.882,4.188
		s4.109,6.217,4.109,10.274c0,4.1-1.385,7.571-4.156,10.415c-2.771,2.845-6.05,4.267-9.835,4.267c-4.601,0-8.438-2.07-11.513-6.211
		v5.176h-6.18c-0.627,0-1.077-0.125-1.349-0.376s-0.408-0.564-0.408-0.941c0-0.397,0.136-0.716,0.408-0.957
		c0.272-0.24,0.722-0.361,1.349-0.361h3.545V242.3h-3.545c-0.627,0-1.077-0.125-1.349-0.376s-0.408-0.575-0.408-0.973
		c0-0.376,0.136-0.69,0.408-0.941s0.722-0.376,1.349-0.376H421.794z M444.664,265.483c0-3.325-1.141-6.143-3.42-8.455
		c-2.279-2.311-4.945-3.466-8-3.466c-3.053,0-5.72,1.156-7.999,3.466c-2.28,2.312-3.419,5.129-3.419,8.455s1.139,6.144,3.419,8.455
		c2.279,2.311,4.946,3.466,7.999,3.466c3.055,0,5.721-1.155,8-3.466C443.523,271.627,444.664,268.809,444.664,265.483z"/>
	<path fill="#F1F2F2" d="M460.35,239.634v17.474c3.179-4.141,7.018-6.211,11.514-6.211c3.848,0,7.143,1.396,9.883,4.188
		c2.738,2.792,4.109,6.217,4.109,10.274c0,4.1-1.387,7.571-4.158,10.415c-2.771,2.845-6.049,4.267-9.834,4.267
		c-4.602,0-8.439-2.07-11.514-6.211v5.176h-6.18c-0.628,0-1.078-0.125-1.35-0.376s-0.408-0.564-0.408-0.941
		c0-0.397,0.137-0.716,0.408-0.957c0.271-0.24,0.722-0.361,1.35-0.361h3.545V242.3h-3.545c-0.628,0-1.078-0.125-1.35-0.376
		s-0.408-0.575-0.408-0.973c0-0.376,0.137-0.69,0.408-0.941s0.722-0.376,1.35-0.376H460.35z M483.219,265.483
		c0-3.325-1.139-6.143-3.418-8.455c-2.281-2.311-4.947-3.466-8-3.466c-3.055,0-5.721,1.156-8,3.466
		c-2.28,2.312-3.42,5.129-3.42,8.455s1.14,6.144,3.42,8.455c2.279,2.311,4.945,3.466,8,3.466c3.053,0,5.719-1.155,8-3.466
		C482.08,271.627,483.219,268.809,483.219,265.483z"/>
	<path fill="#F1F2F2" d="M505.682,251.837v6.651c3.43-3.095,5.996-5.087,7.701-5.976c1.703-0.889,3.277-1.333,4.721-1.333
		c1.568,0,3.027,0.528,4.377,1.584c1.348,1.056,2.023,1.856,2.023,2.4c0,0.397-0.131,0.727-0.393,0.988
		c-0.262,0.262-0.592,0.392-0.988,0.392c-0.209,0-0.387-0.036-0.533-0.109s-0.418-0.309-0.816-0.706
		c-0.732-0.732-1.369-1.234-1.912-1.506c-0.545-0.271-1.078-0.408-1.602-0.408c-1.15,0-2.535,0.46-4.156,1.38
		c-1.621,0.92-4.428,3.168-8.422,6.745v14.431h11.67c0.646,0,1.107,0.121,1.379,0.361c0.271,0.241,0.408,0.56,0.408,0.957
		c0,0.376-0.137,0.69-0.408,0.941s-0.732,0.376-1.379,0.376h-20.674c-0.627,0-1.078-0.12-1.35-0.361
		c-0.271-0.24-0.408-0.549-0.408-0.925c0-0.355,0.131-0.653,0.393-0.894c0.262-0.24,0.717-0.361,1.365-0.361h6.367v-21.96h-4.861
		c-0.627,0-1.078-0.125-1.35-0.376s-0.408-0.575-0.408-0.972c0-0.376,0.131-0.69,0.393-0.941s0.717-0.376,1.365-0.376H505.682z"/>
	<path fill="#F1F2F2" d="M548.785,251.837v24.532h10.352c0.648,0,1.109,0.121,1.381,0.361c0.271,0.241,0.408,0.56,0.408,0.957
		c0,0.376-0.137,0.69-0.408,0.941s-0.732,0.376-1.381,0.376h-23.34c-0.627,0-1.078-0.125-1.35-0.376s-0.408-0.564-0.408-0.941
		c0-0.397,0.137-0.716,0.408-0.957c0.271-0.24,0.723-0.361,1.35-0.361h10.352v-21.866h-7.686c-0.627,0-1.082-0.125-1.363-0.376
		c-0.283-0.251-0.424-0.564-0.424-0.941c0-0.397,0.135-0.722,0.406-0.973c0.273-0.251,0.732-0.376,1.381-0.376H548.785z
		 M548.689,238.316v6.808h-3.889v-6.808H548.689z"/>
	<path fill="#F1F2F2" d="M596.939,254.503v-0.878c0-0.648,0.125-1.108,0.375-1.38c0.252-0.271,0.564-0.408,0.941-0.408
		c0.396,0,0.723,0.136,0.973,0.408c0.252,0.272,0.377,0.732,0.377,1.38v5.96c-0.021,0.649-0.152,1.109-0.393,1.38
		c-0.24,0.272-0.561,0.408-0.957,0.408c-0.355,0-0.654-0.12-0.895-0.361c-0.24-0.24-0.381-0.643-0.422-1.208
		c-0.127-1.485-1.104-2.896-2.934-4.235s-4.293-2.008-7.389-2.008c-3.91,0-6.881,1.224-8.908,3.67
		c-2.029,2.447-3.043,5.25-3.043,8.407c0,3.409,1.117,6.223,3.355,8.439c2.238,2.217,5.135,3.325,8.689,3.325
		c2.051,0,4.137-0.376,6.26-1.129c2.121-0.753,4.041-1.965,5.756-3.639c0.439-0.418,0.826-0.627,1.16-0.627
		c0.355,0,0.654,0.121,0.895,0.361s0.361,0.539,0.361,0.894c0,0.899-1.057,2.039-3.168,3.419c-3.41,2.238-7.205,3.356-11.389,3.356
		c-4.246,0-7.732-1.354-10.463-4.063c-2.729-2.708-4.094-6.143-4.094-10.305c0-4.246,1.396-7.77,4.189-10.572
		c2.791-2.802,6.311-4.204,10.555-4.204C590.811,250.896,594.199,252.099,596.939,254.503z"/>
	<path fill="#F1F2F2" d="M632.074,279.004v-3.796c-3.828,3.221-7.916,4.831-12.266,4.831c-3.158,0-5.627-0.8-7.404-2.4
		c-1.777-1.6-2.666-3.561-2.666-5.882c0-2.551,1.17-4.779,3.514-6.682c2.342-1.903,5.762-2.855,10.258-2.855
		c1.213,0,2.529,0.079,3.953,0.235c1.422,0.157,2.959,0.403,4.611,0.737v-4.267c0-1.443-0.67-2.698-2.008-3.764
		c-1.34-1.067-3.348-1.6-6.023-1.6c-2.051,0-4.926,0.596-8.627,1.788c-0.67,0.209-1.098,0.313-1.287,0.313
		c-0.334,0-0.621-0.125-0.861-0.376c-0.242-0.251-0.361-0.565-0.361-0.941c0-0.355,0.104-0.638,0.314-0.847
		c0.291-0.313,1.473-0.742,3.545-1.286c3.262-0.878,5.729-1.317,7.402-1.317c3.326,0,5.918,0.821,7.781,2.462
		c1.861,1.642,2.791,3.498,2.791,5.568v17.442h3.514c0.648,0,1.107,0.121,1.381,0.361c0.271,0.241,0.408,0.56,0.408,0.957
		c0,0.376-0.137,0.69-0.408,0.941c-0.273,0.251-0.732,0.376-1.381,0.376H632.074z M632.074,265.891
		c-1.234-0.355-2.541-0.617-3.922-0.784c-1.381-0.167-2.834-0.251-4.361-0.251c-3.826,0-6.818,0.827-8.971,2.479
		c-1.633,1.234-2.447,2.708-2.447,4.423c0,1.589,0.621,2.928,1.867,4.015c1.244,1.088,3.059,1.631,5.441,1.631
		c2.279,0,4.398-0.455,6.354-1.364c1.955-0.91,3.969-2.358,6.039-4.345V265.891z"/>
	<path fill="#F1F2F2" d="M364.04,322.033v-0.879c0-0.627,0.12-1.077,0.361-1.35c0.24-0.271,0.559-0.407,0.957-0.407
		c0.397,0,0.716,0.136,0.957,0.407c0.24,0.272,0.361,0.723,0.361,1.35v6.713c0,0.628-0.121,1.078-0.361,1.35
		c-0.241,0.271-0.56,0.408-0.957,0.408c-0.376,0-0.685-0.126-0.925-0.377c-0.241-0.251-0.372-0.658-0.392-1.224
		c-0.105-1.757-1.009-3.335-2.714-4.737c-1.705-1.4-3.937-2.102-6.697-2.102c-2.907,0-5.219,0.748-6.933,2.243
		c-1.715,1.495-2.573,3.257-2.573,5.286c0,1.046,0.24,1.997,0.722,2.854c0.481,0.858,1.119,1.553,1.914,2.087
		c0.794,0.533,1.694,0.961,2.698,1.285c1.003,0.324,2.572,0.664,4.706,1.02c3.576,0.586,6.044,1.182,7.403,1.789
		c1.82,0.814,3.195,1.944,4.125,3.388c0.93,1.443,1.396,3.147,1.396,5.113c0,3.012-1.203,5.579-3.608,7.702
		c-2.405,2.122-5.646,3.184-9.725,3.184c-4.581,0-8.241-1.433-10.98-4.298v1.506c0,0.628-0.121,1.077-0.361,1.349
		c-0.241,0.272-0.56,0.408-0.957,0.408c-0.376,0-0.69-0.136-0.941-0.408c-0.251-0.271-0.376-0.721-0.376-1.349v-7.278
		c0-0.647,0.12-1.108,0.361-1.38c0.24-0.271,0.559-0.408,0.957-0.408c0.376,0,0.685,0.126,0.926,0.377
		c0.24,0.251,0.371,0.658,0.392,1.224c0.104,1.924,1.134,3.676,3.09,5.254c1.956,1.58,4.585,2.369,7.89,2.369
		c3.304,0,5.913-0.826,7.827-2.479c1.914-1.652,2.871-3.607,2.871-5.866c0-1.381-0.366-2.609-1.098-3.687s-1.819-1.93-3.262-2.557
		c-1.004-0.439-3.096-0.93-6.274-1.475c-4.372-0.731-7.519-1.851-9.443-3.356s-2.886-3.649-2.886-6.431
		c0-2.762,1.103-5.135,3.31-7.121c2.206-1.987,5.118-2.98,8.737-2.98C358.215,318.551,361.384,319.711,364.04,322.033z"/>
	<path fill="#F1F2F2" d="M407.426,343.146h-26.854c0.459,3.409,1.887,6.154,4.282,8.234c2.395,2.082,5.359,3.122,8.894,3.122
		c1.966,0,4.026-0.324,6.18-0.973c2.154-0.648,3.911-1.506,5.27-2.572c0.397-0.314,0.742-0.471,1.036-0.471
		c0.334,0,0.627,0.131,0.878,0.392c0.251,0.262,0.376,0.57,0.376,0.926s-0.168,0.701-0.502,1.035
		c-1.004,1.046-2.787,2.023-5.349,2.934c-2.562,0.909-5.192,1.364-7.89,1.364c-4.518,0-8.288-1.479-11.309-4.438
		c-3.022-2.96-4.533-6.541-4.533-10.745c0-3.827,1.417-7.11,4.25-9.851c2.834-2.739,6.342-4.109,10.525-4.109
		c4.308,0,7.853,1.407,10.635,4.22C406.098,335.025,407.468,338.67,407.426,343.146z M404.76,340.479
		c-0.523-2.906-1.898-5.27-4.125-7.09c-2.227-1.819-4.878-2.729-7.952-2.729c-3.075,0-5.721,0.898-7.937,2.697
		c-2.217,1.799-3.598,4.172-4.141,7.121H404.76z"/>
	<path fill="#F1F2F2" d="M419.724,328.934v2.667c2.237-2.405,4.486-3.607,6.745-3.607c1.359,0,2.551,0.36,3.576,1.082
		c1.024,0.722,1.883,1.815,2.572,3.278c1.172-1.463,2.357-2.557,3.561-3.278s2.41-1.082,3.623-1.082c1.903,0,3.42,0.617,4.549,1.851
		c1.485,1.59,2.229,3.326,2.229,5.208v18.415h2.227c0.627,0,1.077,0.12,1.35,0.36c0.271,0.24,0.407,0.56,0.407,0.957
		c0,0.376-0.136,0.69-0.407,0.941c-0.272,0.251-0.723,0.376-1.35,0.376h-4.862v-20.799c0-1.338-0.407-2.447-1.224-3.326
		c-0.815-0.878-1.757-1.316-2.823-1.316c-0.962,0-1.977,0.36-3.043,1.082c-1.066,0.721-2.28,2.139-3.64,4.25v17.475h2.197
		c0.627,0,1.076,0.12,1.348,0.36s0.408,0.56,0.408,0.957c0,0.376-0.137,0.69-0.408,0.941s-0.721,0.376-1.348,0.376h-4.863V335.49
		c0-1.4-0.413-2.557-1.239-3.466c-0.826-0.91-1.752-1.364-2.776-1.364c-0.941,0-1.871,0.303-2.792,0.909
		c-1.276,0.858-2.614,2.333-4.015,4.423v17.475h2.227c0.627,0,1.077,0.12,1.35,0.36c0.271,0.24,0.407,0.56,0.407,0.957
		c0,0.376-0.136,0.69-0.407,0.941c-0.272,0.251-0.723,0.376-1.35,0.376h-7.09c-0.627,0-1.077-0.125-1.349-0.376
		s-0.408-0.565-0.408-0.941c0-0.397,0.136-0.717,0.408-0.957s0.722-0.36,1.349-0.36h2.228v-21.866h-2.228
		c-0.627,0-1.077-0.126-1.349-0.376c-0.272-0.252-0.408-0.575-0.408-0.973c0-0.377,0.136-0.69,0.408-0.941s0.722-0.377,1.349-0.377
		H419.724z"/>
	<path fill="#F1F2F2" d="M477.855,356.102v-3.796c-3.828,3.221-7.916,4.831-12.266,4.831c-3.16,0-5.627-0.8-7.404-2.399
		c-1.778-1.601-2.667-3.561-2.667-5.883c0-2.551,1.171-4.778,3.513-6.682c2.343-1.903,5.762-2.854,10.26-2.854
		c1.213,0,2.529,0.078,3.953,0.234c1.422,0.157,2.959,0.403,4.611,0.738v-4.268c0-1.442-0.67-2.697-2.008-3.764
		c-1.34-1.066-3.348-1.6-6.023-1.6c-2.051,0-4.926,0.596-8.627,1.787c-0.67,0.21-1.099,0.314-1.287,0.314
		c-0.334,0-0.622-0.126-0.862-0.377c-0.241-0.25-0.36-0.564-0.36-0.941c0-0.355,0.104-0.637,0.313-0.847
		c0.293-0.313,1.475-0.741,3.545-1.286c3.264-0.879,5.73-1.317,7.404-1.317c3.326,0,5.918,0.821,7.781,2.462
		c1.861,1.643,2.791,3.498,2.791,5.568v17.443h3.514c0.648,0,1.107,0.12,1.381,0.36c0.271,0.24,0.408,0.56,0.408,0.957
		c0,0.376-0.137,0.69-0.408,0.941c-0.273,0.251-0.732,0.376-1.381,0.376H477.855z M477.855,342.988
		c-1.234-0.355-2.541-0.616-3.922-0.784c-1.381-0.167-2.834-0.251-4.361-0.251c-3.826,0-6.818,0.826-8.972,2.479
		c-1.632,1.234-2.446,2.709-2.446,4.423c0,1.59,0.621,2.929,1.865,4.016c1.244,1.088,3.059,1.632,5.443,1.632
		c2.279,0,4.398-0.455,6.354-1.365c1.955-0.909,3.969-2.357,6.039-4.345V342.988z"/>
	<path fill="#F1F2F2" d="M500.316,328.934v3.984c1.84-1.861,3.502-3.146,4.988-3.858c1.484-0.71,3.158-1.066,5.02-1.066
		c2.008,0,3.838,0.429,5.49,1.286c1.17,0.627,2.232,1.668,3.184,3.121c0.951,1.454,1.428,2.944,1.428,4.471v16.596h2.227
		c0.627,0,1.078,0.12,1.35,0.36s0.408,0.56,0.408,0.957c0,0.376-0.137,0.69-0.408,0.941s-0.723,0.376-1.35,0.376h-7.059
		c-0.648,0-1.107-0.125-1.381-0.376c-0.271-0.251-0.406-0.565-0.406-0.941c0-0.397,0.135-0.717,0.406-0.957
		c0.273-0.24,0.732-0.36,1.381-0.36h2.197v-16.156c0-1.861-0.682-3.436-2.039-4.722c-1.361-1.286-3.18-1.929-5.459-1.929
		c-1.736,0-3.242,0.35-4.518,1.051s-3.096,2.441-5.459,5.223v16.533h2.98c0.627,0,1.076,0.12,1.35,0.36
		c0.271,0.24,0.406,0.56,0.406,0.957c0,0.376-0.135,0.69-0.406,0.941c-0.273,0.251-0.723,0.376-1.35,0.376h-8.596
		c-0.627,0-1.078-0.125-1.35-0.376s-0.408-0.565-0.408-0.941c0-0.397,0.137-0.717,0.408-0.957s0.723-0.36,1.35-0.36h2.98v-21.866
		h-2.229c-0.627,0-1.076-0.126-1.348-0.376c-0.273-0.252-0.408-0.575-0.408-0.973c0-0.377,0.135-0.69,0.408-0.941
		c0.271-0.251,0.721-0.377,1.348-0.377H500.316z"/>
	<path fill="#F1F2F2" d="M541.977,328.934h14.305c0.629,0,1.078,0.126,1.35,0.377s0.408,0.576,0.408,0.973
		c0,0.377-0.137,0.689-0.408,0.941c-0.271,0.25-0.721,0.376-1.35,0.376h-14.305v17.536c0,1.527,0.611,2.804,1.836,3.828
		c1.223,1.024,3.016,1.537,5.379,1.537c1.777,0,3.703-0.267,5.773-0.8c2.07-0.534,3.68-1.135,4.83-1.805
		c0.418-0.271,0.764-0.407,1.035-0.407c0.336,0,0.629,0.131,0.879,0.392c0.252,0.262,0.377,0.57,0.377,0.926
		c0,0.313-0.137,0.606-0.408,0.878c-0.67,0.69-2.295,1.438-4.879,2.243c-2.582,0.805-5.055,1.208-7.418,1.208
		c-3.074,0-5.521-0.722-7.342-2.164c-1.818-1.443-2.729-3.389-2.729-5.836v-17.536h-4.863c-0.627,0-1.076-0.126-1.348-0.376
		c-0.273-0.252-0.408-0.575-0.408-0.973c0-0.377,0.135-0.69,0.408-0.941c0.271-0.251,0.721-0.377,1.348-0.377h4.863v-7.779
		c0-0.627,0.125-1.077,0.377-1.35c0.25-0.271,0.564-0.407,0.939-0.407c0.398,0,0.723,0.136,0.973,0.407
		c0.252,0.272,0.377,0.723,0.377,1.35V328.934z"/>
	<path fill="#F1F2F2" d="M587.34,328.934v24.533h10.352c0.648,0,1.109,0.12,1.381,0.36s0.408,0.56,0.408,0.957
		c0,0.376-0.137,0.69-0.408,0.941s-0.732,0.376-1.381,0.376h-23.34c-0.627,0-1.078-0.125-1.35-0.376s-0.408-0.565-0.408-0.941
		c0-0.397,0.137-0.717,0.408-0.957s0.723-0.36,1.35-0.36h10.352v-21.866h-7.686c-0.627,0-1.082-0.126-1.363-0.376
		c-0.283-0.252-0.424-0.564-0.424-0.941c0-0.396,0.135-0.722,0.406-0.973c0.273-0.251,0.732-0.377,1.381-0.377H587.34z
		 M587.244,315.413v6.808h-3.889v-6.808H587.244z"/>
	<path fill="#F1F2F2" d="M635.494,331.601v-0.878c0-0.648,0.125-1.108,0.375-1.381c0.252-0.271,0.564-0.408,0.941-0.408
		c0.396,0,0.723,0.137,0.973,0.408c0.252,0.272,0.377,0.732,0.377,1.381v5.96c-0.021,0.649-0.152,1.108-0.393,1.38
		c-0.24,0.273-0.561,0.408-0.957,0.408c-0.355,0-0.654-0.119-0.895-0.36c-0.24-0.24-0.381-0.644-0.422-1.208
		c-0.127-1.484-1.104-2.896-2.934-4.234c-1.83-1.339-4.293-2.008-7.389-2.008c-3.91,0-6.881,1.223-8.908,3.67
		c-2.029,2.447-3.043,5.25-3.043,8.407c0,3.409,1.117,6.223,3.355,8.439s5.135,3.325,8.689,3.325c2.051,0,4.137-0.377,6.26-1.13
		c2.121-0.753,4.041-1.966,5.756-3.639c0.439-0.418,0.826-0.628,1.16-0.628c0.355,0,0.654,0.121,0.895,0.361
		s0.361,0.538,0.361,0.894c0,0.899-1.057,2.039-3.168,3.42c-3.41,2.238-7.205,3.356-11.389,3.356c-4.246,0-7.732-1.354-10.463-4.063
		c-2.729-2.708-4.094-6.144-4.094-10.306c0-4.245,1.396-7.769,4.189-10.571c2.791-2.803,6.311-4.204,10.555-4.204
		C629.365,327.993,632.754,329.195,635.494,331.601z"/>
	<path fill="#F1F2F2" d="M670.629,356.102v-3.796c-3.828,3.221-7.916,4.831-12.266,4.831c-3.158,0-5.627-0.8-7.404-2.399
		c-1.777-1.601-2.666-3.561-2.666-5.883c0-2.551,1.17-4.778,3.514-6.682c2.342-1.903,5.762-2.854,10.258-2.854
		c1.213,0,2.529,0.078,3.953,0.234c1.422,0.157,2.959,0.403,4.611,0.738v-4.268c0-1.442-0.67-2.697-2.008-3.764
		c-1.34-1.066-3.348-1.6-6.023-1.6c-2.051,0-4.926,0.596-8.627,1.787c-0.67,0.21-1.098,0.314-1.287,0.314
		c-0.334,0-0.621-0.126-0.861-0.377c-0.242-0.25-0.361-0.564-0.361-0.941c0-0.355,0.104-0.637,0.314-0.847
		c0.291-0.313,1.473-0.741,3.545-1.286c3.262-0.879,5.729-1.317,7.402-1.317c3.326,0,5.918,0.821,7.781,2.462
		c1.861,1.643,2.791,3.498,2.791,5.568v17.443h3.514c0.648,0,1.107,0.12,1.381,0.36c0.271,0.24,0.408,0.56,0.408,0.957
		c0,0.376-0.137,0.69-0.408,0.941c-0.273,0.251-0.732,0.376-1.381,0.376H670.629z M670.629,342.988
		c-1.234-0.355-2.541-0.616-3.922-0.784c-1.381-0.167-2.834-0.251-4.361-0.251c-3.826,0-6.818,0.826-8.971,2.479
		c-1.633,1.234-2.447,2.709-2.447,4.423c0,1.59,0.621,2.929,1.867,4.016c1.244,1.088,3.059,1.632,5.441,1.632
		c2.279,0,4.398-0.455,6.354-1.365c1.955-0.909,3.969-2.357,6.039-4.345V342.988z"/>
</g>
<g>
</g>
<g>
</g>
<g>
</g>
<g>
</g>
<g>
</g>
<g>
</g>
</svg>
